<svg xmlns="http://www.w3.org/2000/svg" viewBox="0 0 100 100" fill="none">
  <defs>
    <linearGradient id="g1" x1="0%" y1="0%" x2="100%" y2="100%">
      <stop offset="0%" stop-color="#6366f1" />
      <stop offset="50%" stop-color="#8b5cf6" />
      <stop offset="100%" stop-color="#3b82f6" />
    </linearGradient>
    <linearGradient id="g2" x1="0%" y1="100%" x2="100%" y2="0%">
      <stop offset="0%" stop-color="#1e1b4b" />
      <stop offset="100%" stop-color="#312e81" />
    </linearGradient>
  </defs>
  <rect width="100" height="100" rx="24" fill="url(#g2)" />
  <rect x="2" y="2" width="96" height="96" rx="22" stroke="url(#g1)" stroke-width="2" stroke-opacity="0.4" />
  <path d="M50 22 L76 37 V67 L50 82 L24 67 V37 Z" stroke="url(#g1)" stroke-width="3.5" fill="none" stroke-linejoin="round" />
  <circle cx="50" cy="52" r="7" fill="#6366f1" />
  <circle cx="50" cy="22" r="4.5" fill="#38bdf8" />
  <circle cx="76" cy="37" r="4.5" fill="#818cf8" />
  <circle cx="76" cy="67" r="4.5" fill="#a78bfa" />
  <circle cx="50" cy="82" r="4.5" fill="#c084fc" />
  <circle cx="24" cy="67" r="4.5" fill="#818cf8" />
  <circle cx="24" cy="37" r="4.5" fill="#38bdf8" />
  <line x1="50" y1="52" x2="50" y2="26.5" stroke="#38bdf8" stroke-width="2" stroke-dasharray="2 2" />
  <line x1="50" y1="52" x2="72" y2="39" stroke="#818cf8" stroke-width="2" stroke-dasharray="2 2" />
  <line x1="50" y1="52" x2="72" y2="65" stroke="#a78bfa" stroke-width="2" stroke-dasharray="2 2" />
  <line x1="50" y1="52" x2="50" y2="77.5" stroke="#c084fc" stroke-width="2" stroke-dasharray="2 2" />
  <line x1="50" y1="52" x2="28" y2="65" stroke="#818cf8" stroke-width="2" stroke-dasharray="2 2" />
  <line x1="50" y1="52" x2="28" y2="39" stroke="#38bdf8" stroke-width="2" stroke-dasharray="2 2" />
</svg>
